#!OML:ASF E:\Steps\Project 1\Capture day 1\Session 2\Subject.ASF
:FULLY-SPECIFIED
:DEGREES
726
root 9.8536 21.9961 -12.9865 -158.613 2.90021 176.945
lowerback -20.2868 0.218041 -5.45614
upperback 1.98639 1.84663 -0.806899
thorax 13.5819 0.508332 2.79073
lowerneck -2.98118 -0.716687 -2.04669
upperneck 20.7612 -2.91741 2.9558
head 6.87627 -1.8966 1.0318
rclavicle 2.55314e-015 -5.96354e-015
rhumerus -31.6784 -5.40939 -85.5327
rradius 46.5267
rwrist -8.33679
rhand -7.21348 -51.687
rfingers 7.12502
rthumb 18.6655 279.189
lclavicle 2.55314e-015 -5.96354e-015
lhumerus -36.9154 6.37176 75.1308
lradius 20.7091
lwrist -12.1145
lhand -18.5605 -10.5392
lfingers 7.12502
lthumb 7.72935 19.2995
rfemur -19.8921 7.15313 21.1626
rtibia 18.2216
rfoot -386.586 -12.6206
rtoes -38.9631
lfemur -79.9074 -0.334328 -20.1128
ltibia 67.9279
lfoot 354.665 1.53317
ltoes -33.1474
727
root 9.84095 21.9859 -13.056 -158.655 2.78948 176.936
lowerback -20.1759 0.231405 -5.50866
upperback 2.08761 1.86974 -0.809508
thorax 13.6323 0.509758 2.82251
lowerneck -3.15587 -0.704625 -2.34301
upperneck 20.4858 -2.85566 3.26946
head 6.82354 -1.84147 1.18838
rclavicle 5.08143e-015 2.49723e-014
rhumerus -31.5732 -5.54456 -85.5033
rradius 46.6571
rwrist -8.18419
rhand -6.07273 -52.6152
rfingers 7.12502
rthumb 19.7624 278.369
lclavicle 5.08143e-015 2.49723e-014
lhumerus -36.7849 5.7621 75.5246
lradius 20.9834
lwrist -11.7261
lhand -18.5257 -10.4918
lfingers 7.12502
lthumb 7.763 19.3457
rfemur -19.5251 7.12325 21.1446
rtibia 18.206
rfoot -388.534 -12.4004
rtoes -35.8676
lfemur -80.0827 -0.561944 -20.142
ltibia 68.6109
lfoot 354.477 1.55754
ltoes -33.3884
728
root 9.83165 21.9759 -13.1211 -158.634 2.70748 176.931
lowerback -20.0029 0.220478 -5.57564
upperback 1.9842 1.87041 -0.879709
thorax 13.4107 0.520669 2.77673
lowerneck -2.93794 -0.665214 -2.46684
upperneck 20.48 -2.86977 3.55224
head 6.78837 -1.84643 1.30083
rclavicle -3.72721e-016 -9.67833e-015
rhumerus -31.8205 -5.72551 -85.6026
rradius 46.8374
rwrist -8.07708
rhand -5.87441 -52.8349
rfingers 7.12502
rthumb 19.9531 278.17
lclavicle -3.72721e-016 -9.67833e-015
lhumerus -37.0009 5.0373 75.7246
lradius 21.3608
lwrist -11.325
lhand -18.7282 -10.643
lfingers 7.12502
lthumb 7.5675 19.2016
rfemur -19.2462 7.2411 21.1063
rtibia 18.1781
rfoot -387.08 -12.793
rtoes -38.729
lfemur -80.3577 -0.743143 -20.1405
ltibia 69.2629
lfoot 354.361 1.72254
ltoes -34.0111
729
root 9.82459 21.9687 -13.1883 -158.473 2.60279 176.978
lowerback -19.9366 0.145861 -5.63861
upperback 1.9361 1.78806 -0.91451
thorax 13.3229 0.485332 2.74643
lowerneck -3.34378 -0.592852 -2.56229
upperneck 20.6353 -2.79796 3.8178
head 6.91178 -1.78862 1.40399
rclavicle -1.38155e-014 -1.04362e-015
rhumerus -31.7498 -5.61135 -85.7844
rradius 46.9364
rwrist -8.34164
rhand -6.09154 -52.9987
rfingers 7.12502
rthumb 19.7444 277.984
lclavicle -1.38155e-014 -1.04362e-015
lhumerus -36.7576 4.91162 75.7648
lradius 21.4667
lwrist -11.4142
lhand -18.972 -11.013
lfingers 7.12502
lthumb 7.33222 18.84
rfemur -19.1366 7.56514 21.1172
rtibia 18.1871
rfoot -389.011 -12.8723
rtoes -35.4923
lfemur -80.711 -0.857795 -20.1206
ltibia 69.8444
lfoot 354.305 1.83119
ltoes -35.122
730
root 9.8126 21.9635 -13.2596 -158.394 2.41029 176.98
lowerback -19.9063 0.104661 -5.67436
upperback 1.90346 1.73928 -0.909273
thorax 13.2704 0.463068 2.75699
lowerneck -2.89061 -0.722622 -2.64334
upperneck 20.5859 -2.96996 3.60789
head 6.82031 -1.91051 1.34133
rclavicle 5.49143e-015 -1.39149e-015
rhumerus -31.7548 -5.46799 -85.7593
rradius 46.9198
rwrist -8.70305
rhand -6.16504 -53.1642
rfingers 7.12502
rthumb 19.6737 277.811
lclavicle 5.49143e-015 -1.39149e-015
lhumerus -36.4911 4.86704 75.9113
lradius 21.4699
lwrist -11.7855
lhand -18.8998 -10.9008
lfingers 7.12502
lthumb 7.40185 18.9497
rfemur -18.8393 7.70839 21.1124
rtibia 18.0815
rfoot -387.43 -13.4831
rtoes -38.7154
lfemur -80.8386 -1.10148 -20.1656
ltibia 70.3121
lfoot 354.107 1.68042
ltoes -35.5093
731
root 9.79628 21.9585 -13.3289 -158.302 2.21731 176.899
lowerback -19.9792 0.0444717 -5.72853
upperback 1.989 1.69594 -1.00284
thorax 13.4194 0.437796 2.67137
lowerneck -3.2042 -0.82776 -2.27189
upperneck 20.6563 -3.04755 3.19831
head 6.8915 -1.93911 1.13848
rclavicle -8.54774e-015 -1.39646e-014
rhumerus -31.5165 -5.56321 -85.8797
rradius 46.8933
rwrist -8.69711
rhand -6.28796 -53.0431
rfingers 7.12502
rthumb 19.5555 277.92
lclavicle -8.54774e-015 -1.39646e-014
lhumerus -36.1519 4.58755 75.9963
lradius 21.7921
lwrist -11.7896
lhand -18.9026 -10.6844
lfingers 7.12502
lthumb 7.39912 19.1662
rfemur -18.5515 7.59746 21.017
rtibia 17.9618
rfoot -389.289 -13.277
rtoes -35.9999
lfemur -80.9656 -1.42441 -20.292
ltibia 70.8601
lfoot 353.704 1.3421
ltoes -35.2777
732
root 9.78154 21.9569 -13.3913 -158.075 2.21672 176.809
lowerback -19.9674 0.0463453 -5.85651
upperback 1.85853 1.749 -1.11373
thorax 13.2569 0.470688 2.63531
lowerneck -3.05336 -0.89802 -2.08251
upperneck 20.6364 -3.15189 3.06817
head 6.85753 -1.99075 1.05873
rclavicle -9.93923e-016 -3.47873e-015
rhumerus -31.7215 -5.72253 -85.9173
rradius 47.0438
rwrist -8.52109
rhand -6.58176 -52.5616
rfingers 7.12502
rthumb 19.273 278.373
lclavicle -9.93923e-016 -3.47873e-015
lhumerus -35.9875 4.0148 76.1492
lradius 22.0783
lwrist -11.5145
lhand -19.1686 -10.9319
lfingers 7.12502
lthumb 7.14245 18.9276
rfemur -18.5348 7.66524 20.8305
rtibia 18.0802
rfoot -388.091 -13.2957
rtoes -37.75
lfemur -81.0371 -1.61601 -20.3838
ltibia 71.0988
lfoot 353.266 1.15536
ltoes -33.4557
